<svg xmlns="http://www.w3.org/2000/svg" xmlns:xlink="http://www.w3.org/1999/xlink" width="512" height="341" viewBox="0 0 512 341">
  <defs>
    <path id="a" d="M256 340.611c-6.552 0-13.063-.273-19.493-.797C124.36 332.872 30.946 241.643 0 170.07V170c30.946-71.643 124.36-162.872 236.507-169.744C242.937.662 249.448.111 256 .111s13.063.551 19.493 1.145C387.642 7.128 481.055 98.357 512 170v.07c-30.946 71.643-124.36 162.872-236.507 169.744-6.43.594-12.941.945-19.493.945zM255.999 56.977C157.585 56.977 74.92 123.085 41.906 170h428.186c-33.014-46.915-115.679-113.023-214.093-113.023zm0 227.032c98.414 0 181.079-66.108 214.093-113.023H41.906c33.014 46.915 115.679 113.023 214.093 113.023zm0 0" />
  </defs>
  <g fill="none" fill-rule="evenodd">
    <mask id="b" fill="#fff">
      <use xlink:href="#a" />
    </mask>
    <use fill="#FF5F00" xlink:href="#a" />
    <g fill="#EB001B" mask="url(#b)">
      <path d="M0 341h512V0H0z" />
    </g>
    <path fill="#F79E1B" d="M0 341h512V170H0zm0 0" mask="url(#b)" />
  </g>
</svg>